<svg width="100" height="100" viewBox="0 0 100 100" fill="none" xmlns="http://www.w3.org/2000/svg">
<path d="M58.3334 62.5007L71.55 49.284C73.7609 47.0751 76.7582 45.8342 79.8834 45.834H83.3334C85.5435 45.834 87.6631 46.712 89.2259 48.2748C90.7887 49.8376 91.6667 51.9572 91.6667 54.1673C91.6667 56.3775 90.7887 58.4971 89.2259 60.0599C87.6631 61.6227 85.5435 62.5007 83.3334 62.5007H16.6667C14.4566 62.5007 12.337 61.6227 10.7742 60.0599C9.21135 58.4971 8.33337 56.3775 8.33337 54.1673C8.33337 51.9572 9.21135 49.8376 10.7742 48.2748C12.337 46.712 14.4566 45.834 16.6667 45.834H31.9042C38.1542 45.834 44.15 48.3173 48.5709 52.7381L58.3334 62.5007Z" stroke="#878787" stroke-width="2" stroke-linecap="round" stroke-linejoin="round"/>
<path d="M12.5 62.5H87.5V70.8333C87.5 74.1485 86.183 77.328 83.8388 79.6722C81.4946 82.0164 78.3152 83.3333 75 83.3333H25C21.6848 83.3333 18.5054 82.0164 16.1612 79.6722C13.817 77.328 12.5 74.1485 12.5 70.8333V62.5Z" fill="#878787" stroke="#878787" stroke-width="2" stroke-linecap="round" stroke-linejoin="round"/>
<path fill-rule="evenodd" clip-rule="evenodd" d="M22.7793 18.975C30.2918 14.4042 39.9168 12.5 50.0001 12.5C60.0834 12.5 69.7084 14.4042 77.2209 18.975C84.9043 23.6458 90.1751 31 91.3959 41.175C92.0084 46.275 87.7793 50 83.3334 50H16.6668C12.2209 50 7.99176 46.275 8.60426 41.175C9.8251 31 15.0959 23.6458 22.7793 18.975ZM29.1668 25C28.0617 25 27.0019 25.439 26.2205 26.2204C25.4391 27.0018 25.0001 28.0616 25.0001 29.1667C25.0001 30.2717 25.4391 31.3315 26.2205 32.1129C27.0019 32.8943 28.0617 33.3333 29.1668 33.3333C30.2718 33.3333 31.3358 32.8943 32.1172 32.1129C32.8986 31.3315 33.3376 30.2717 33.3376 29.1667C33.3376 28.0616 32.8986 27.0018 32.1172 26.2204C31.3358 25.439 30.2718 25 29.1668 25ZM62.5001 29.1667C62.5001 28.0616 62.9391 27.0018 63.7205 26.2204C64.5019 25.439 65.5617 25 66.6668 25C67.7718 25 68.8358 25.439 69.6172 26.2204C70.3986 27.0018 70.8376 28.0616 70.8376 29.1667C70.8376 30.2717 70.3986 31.3315 69.6172 32.1129C68.8358 32.8943 67.776 33.3333 66.6709 33.3333C65.5659 33.3333 64.5019 32.8943 63.7205 32.1129C62.9391 31.3315 62.5001 30.2717 62.5001 29.1667ZM45.8334 33.3333C44.7284 33.3333 43.6686 33.7723 42.8871 34.5537C42.1057 35.3351 41.6668 36.3949 41.6668 37.5C41.6668 38.6051 42.1057 39.6649 42.8871 40.4463C43.6686 41.2277 44.7284 41.6667 45.8334 41.6667H45.8376C46.9427 41.6667 48.0025 41.2277 48.7839 40.4463C49.5653 39.6649 50.0043 38.6051 50.0043 37.5C50.0043 36.3949 49.5653 35.3351 48.7839 34.5537C48.0025 33.7723 46.9427 33.3333 45.8376 33.3333H45.8334Z" fill="#878787"/>
</svg>
