<svg width="100" height="100" viewBox="0 0 100 100" fill="none" xmlns="http://www.w3.org/2000/svg">
<path d="M89.45 13.3064C86.0813 5.01261 76.5109 0.971984 68.0703 4.2798C61.6328 6.80636 57.7234 12.8798 57.7203 19.297H43.3141L37.9594 14.036C33.9797 10.1235 27.5219 10.122 23.5406 14.036L9.375 27.9517L11.5375 30.0767L25.7031 16.1595C28.4906 13.4204 33.0094 13.422 35.7969 16.1595L38.9891 19.297H35.3625C42.6719 36.2845 20.45 67.0517 46.3016 72.222C46.2844 72.2298 46.2641 72.2376 46.2797 72.2439C54.1812 74.9814 53.7594 81.511 51.1797 87.6579C48.4469 94.1689 41.9016 95.3564 41.8406 95.3939C41.6469 95.5064 41.5328 95.8626 41.5609 96.2329C41.5969 96.6017 41.7641 96.8751 41.9656 96.8751H67.9125C68.1125 96.8751 68.2828 96.6017 68.3141 96.2329C68.3469 95.8626 68.2266 95.5064 68.0344 95.3939C67.9719 95.3564 61.4313 94.1689 58.6969 87.6579C56.1172 81.5095 55.6969 74.9814 63.5953 72.2439C63.6141 72.2376 63.5906 72.2298 63.5734 72.222C82.3859 68.461 75.7469 51.1454 73.55 35.447C75.8428 35.5361 78.1293 35.1499 80.2656 34.3126C88.7047 31.0064 92.8156 21.6001 89.45 13.3064ZM54.9391 70.2079C22.2672 70.2079 45.2266 37.4157 38.5188 20.7439H40.4625L53.4594 33.5126C50.3281 32.572 47.0375 31.8048 43.4422 31.8048C42.9062 31.8048 42.3672 31.822 41.8156 31.8579C41.7016 37.7735 40.0422 44.5032 39.4516 50.5235C38.5234 60.0126 40.2609 67.7439 54.9375 67.7439C67.1562 67.7439 70.4047 62.3829 70.6172 55.1142C70.775 49.6548 69.2219 43.1189 68.4594 36.9595C68.2391 36.9689 68.0219 36.972 67.8016 36.972C65.1344 36.972 62.5156 36.3501 59.8469 35.5423L44.7828 20.7423H57.7797C57.9203 22.2642 58.275 23.7907 58.8812 25.2829C60.9609 30.4095 65.4125 33.9048 70.5016 35.0517C72.5281 51.4173 79.6703 70.2079 54.9391 70.2079ZM67.0969 46.9142L67.5031 46.5157C67.8469 48.786 68.1281 50.972 68.2156 53.0079C68.0797 53.011 67.9406 53.0142 67.8 53.0142C64.5125 53.0142 61.1312 51.9095 57.5516 50.7392C53.4156 49.3892 48.7266 47.8564 43.4453 47.8564C43.0203 47.8564 42.5969 47.8657 42.1703 47.886C42.375 46.422 42.6188 44.922 42.8703 43.3642C43.3641 40.3126 43.8719 37.1782 44.0922 34.1564C48.3484 34.2767 52.2594 35.5564 56.0438 36.7954C56.4203 36.9189 56.7922 37.0345 57.1672 37.1548L67.0969 46.9142ZM63.175 38.8095C64.2281 39.0204 65.2875 39.1923 66.3672 39.2673C66.5234 40.3298 66.6937 41.3829 66.8625 42.4329L63.175 38.8095ZM67.4594 31.8079C67.8844 31.7532 68.1687 31.3845 68.4812 31.3689C68.5672 31.3642 69.2469 30.0001 70.0656 28.2579C70.0609 28.622 70.0563 28.986 70.0625 29.3564C69.5016 30.697 69.0766 31.772 69.0156 32.1095C68.9641 32.4189 69.3891 32.5985 69.4891 32.897C69.5344 33.036 69.8422 33.1485 70.3031 33.2392L70.3812 33.9767C65.7609 32.822 61.7438 29.6001 59.8406 24.9142C59.302 23.5804 58.9588 22.1758 58.8219 20.7439H59.7422C59.7875 22.1798 59.9141 23.347 60.1141 23.497C60.4516 23.7501 60.9234 23.686 61.1531 23.8892C61.275 23.9939 66.6391 22.0532 69.8687 20.7439H70.6734C67.6578 21.8954 62.1547 24.0282 61.4406 24.5126C61.1797 24.6954 61.35 25.1157 61.2047 25.3923C60.8109 26.1298 66.7703 31.8907 67.4594 31.8079ZM79.8797 33.372C77.8229 34.1769 75.6184 34.5354 73.4125 34.4235C73.3734 34.1142 73.3375 33.8048 73.3016 33.497C75.6875 33.5657 78.35 33.4298 78.5844 33.136C78.85 32.8064 78.7812 32.3517 78.9906 32.1267C79.1516 31.9548 74.8344 20.9689 74.5703 21.3517C74.3438 21.6782 74.0203 21.4735 73.8094 21.3282C74.0078 20.6345 74.2328 19.9532 74.5141 19.297H72.0781C72.0844 19.0517 72.3453 18.797 72.3766 18.6985C72.3766 18.6985 62.3547 14.4079 61.1656 14.2079C60.8484 14.1517 60.6641 14.5657 60.3578 14.6595C59.9344 14.7939 59.7375 17.0814 59.7219 19.297H58.75C58.7531 13.2782 62.4172 7.58761 68.4516 5.22042C76.3625 2.11886 85.3391 5.9048 88.4938 13.6814C91.6484 21.4548 87.7938 30.2735 79.8797 33.372Z" fill="#878787"/>
<path d="M78.9379 5.70946C78.6769 4.91728 70.2629 4.93446 69.8379 5.46728C69.5769 5.79696 69.6441 6.25478 69.4347 6.47821C69.2738 6.65165 73.5957 17.6376 73.8566 17.2548C74.1551 16.8204 74.6363 17.3329 74.7801 17.3767C74.7801 17.3767 79.1988 7.64853 79.4066 6.49228C79.4613 6.18603 79.0363 6.00478 78.9379 5.70946ZM88.2613 15.0032C87.9222 14.747 87.4535 14.811 87.2176 14.6095C87.0426 14.4532 75.7285 18.6485 76.1207 18.9001C76.5691 19.1923 76.0394 19.6579 75.991 19.7985C75.991 19.7985 86.0176 24.0876 87.2035 24.2923C87.5238 24.3454 87.7082 23.9313 88.0129 23.8345C88.8269 23.5829 88.8113 15.4126 88.2613 15.0032ZM68.0113 6.70946C67.2519 6.32821 61.3129 12.1142 61.4004 12.7829C61.4566 13.197 61.8316 13.4735 61.8519 13.7767C61.8676 14.0095 72.9176 18.8126 72.8254 18.361C72.7222 17.847 73.4363 17.8845 73.5707 17.8157C73.5707 17.8157 69.6082 7.90009 68.916 6.94071C68.7269 6.6829 68.2941 6.84853 68.0113 6.70946ZM75.8847 20.4048C75.9894 20.9188 75.2738 20.886 75.1394 20.9548C75.1394 20.9548 79.1035 30.8657 79.7972 31.8282C79.9816 32.0813 80.4144 31.9173 80.6957 32.0563C81.4566 32.436 87.3941 26.6485 87.3066 25.9813C87.2551 25.5688 86.8722 25.2938 86.8566 24.9876C86.8441 24.7579 75.7941 19.9563 75.8847 20.4048ZM75.2301 17.7267C75.7613 17.622 75.7269 18.3173 75.7957 18.4485C75.7957 18.4485 86.0035 14.6017 86.9957 13.9267C87.2566 13.7485 87.0863 13.3235 87.2301 13.0485C87.6222 12.311 81.6629 6.54853 80.9754 6.63134C80.5504 6.68446 80.2644 7.05478 79.9519 7.07353C79.7176 7.08603 74.7722 17.8142 75.2301 17.7267Z" fill="#878787"/>
</svg>
