<svg width="100" height="100" viewBox="0 0 100 100" fill="none" xmlns="http://www.w3.org/2000/svg">
<path d="M93.0812 20.0141C91.5078 18.4391 89.7797 17.6406 87.9469 17.6406C87.6625 17.6406 87.3797 17.6703 87.0953 17.7063C87.1766 14.35 86.2687 11.5375 84.1984 9.46719C82.8797 8.15 81.6016 7.45312 80.3266 7.25938L80.2078 7.14063C77.5094 4.43906 74.9156 3.125 72.2828 3.125C66.2297 3.125 61.5578 9.8 55.0922 19.0391C50.6656 25.3609 45.6516 32.5266 39.0859 39.0922C32.5203 45.6578 25.3578 50.6719 19.0375 55.0984C10.4437 61.1125 3.65781 65.8641 3.15468 71.6078C2.92656 74.2281 4.0125 76.8094 6.44218 79.4734C6.07968 81.3234 6.71562 83.15 8.61875 85.0531C10.8531 87.2859 13.9516 88.1688 17.6672 87.9141C17.6562 89.7625 18.4219 91.5063 20.0094 93.0922C22.5187 95.6016 26.0391 96.8734 30.4734 96.8734C42.2219 96.8734 59.0484 87.6391 73.3406 73.3453C93.825 52.8594 102.495 29.4328 93.0812 20.0141ZM7.85312 76.4688C6.6 74.8375 6.03906 73.3203 6.16718 71.8719C6.54687 67.5328 12.8234 63.1375 20.7703 57.575C27.1922 53.0797 34.4719 47.9828 41.2234 41.2313C47.9766 34.4781 53.0719 27.1984 57.5672 20.7734C63.2844 12.6031 67.8016 6.15 72.2812 6.15C73.6609 6.15 75.1078 6.79688 76.6578 8.0375C74.2469 9.36094 71.7312 12.2094 68.9172 15.9391C67.6609 16.0406 66.2172 16.4281 65.3406 17.3359C63.6969 19.0281 63.8937 20.8672 64.1672 22.5234C62.5343 24.8492 60.8806 27.1602 59.2062 29.4563C57.0406 29.9359 54.4531 30.6344 52.4547 33.5188C50.8187 35.8828 50.4375 38.4688 50.1312 40.5484L50.0719 40.925C49.0512 42.0809 48.0072 43.216 46.9406 44.3297C42.9781 44.2844 40.4156 48.4672 39.0484 50.7188C38.675 51.3328 38.35 52.0094 38.0375 52.675C36.2424 54.1907 34.4127 55.6651 32.55 57.0969C30.9391 57.0172 29.75 57.7203 28.5891 58.5188C26.9 59.6828 25.9875 61.0781 25.3203 62.4406C17.4 68.0797 10.7156 72.45 7.85312 76.4688ZM64.4437 24.7563C64.4531 25.2375 64.4031 25.7141 64.2594 26.1953C63.7969 25.8516 63.5547 25.5219 63.6375 25.2484C63.7062 25.0188 64.0047 24.8578 64.4437 24.7563ZM36.7547 55.1188C36.5176 55.4974 36.2359 55.8463 35.9156 56.1578C35.7797 55.975 35.7219 55.8031 35.7687 55.6516C35.8484 55.3906 36.2141 55.2203 36.7547 55.1188ZM19.4922 68.9609C18.575 69.1975 17.6832 69.5235 16.8297 69.9344C16.7687 69.8125 16.7375 69.6969 16.7703 69.5875C16.9156 69.1063 17.9734 68.8984 19.4922 68.9609ZM16.8141 80.2969C16.6031 81.4734 15.7531 81.65 15.2656 81.65C14.5984 81.65 13.9219 81.3359 13.5 80.8297C13.3136 80.6058 13.1805 80.3425 13.1107 80.0596C13.0409 79.7768 13.0361 79.4818 13.0969 79.1969C14.0672 73.8031 15.2422 71.6656 19.9125 70.4141C24.0047 69.3172 25.0391 66.8813 26.0391 64.5266C26.7859 62.7688 27.4906 61.1078 29.4453 59.7625C30.3781 59.1219 31.2375 58.5906 32.3094 58.5906C32.4344 58.5906 32.5625 58.5969 32.6953 58.6125C36.7172 59.0469 38.0984 56.0828 39.3156 53.5016C39.6547 52.7828 39.975 52.1047 40.3422 51.5031C42.0875 48.6266 44.1969 45.5188 47.2625 45.8484C47.4687 45.8672 47.6609 45.8781 47.8453 45.8781C50.875 45.8766 51.2578 43.2797 51.6281 40.7672C51.925 38.7438 52.2641 36.4516 53.6984 34.3797C55.475 31.8141 57.7297 31.3234 59.9109 30.8453C61.9625 30.3984 64.0859 29.9344 65.2937 27.6578C66.2578 25.8422 65.9672 24.1125 65.7094 22.5875C65.4312 20.9391 65.2141 19.6375 66.4281 18.3875C67.0812 17.7125 68.5094 17.4063 69.6156 17.4063C69.9656 17.4109 70.4219 17.4516 70.925 17.4953C71.6422 17.5594 72.4562 17.6297 73.2391 17.6297C74.7641 17.6297 75.7391 17.3469 76.3062 16.7422C76.675 16.3453 76.8516 15.825 76.8109 15.2328C76.6891 13.4219 77.1531 12.0594 77.6641 11.5109C77.9156 11.2406 78.1078 11.2406 78.1703 11.2406C78.475 11.2406 78.8734 11.5031 79.2937 11.9797C80.4719 13.3188 82.4141 17.7047 80.0062 20.1125C77.2828 22.8391 74.4 22.9609 72.2969 23.0484C70.9328 23.1063 69.8547 23.15 69.2719 23.9469C68.7734 24.6297 68.9375 25.525 69.1047 26.1359C70.0594 29.65 69.1219 31.6063 65.5156 33.6156C64.85 33.9859 63.7547 34.1953 62.5937 34.4172C59.6281 34.9844 55.5625 35.7609 56.0641 40.3203C56.2812 42.3047 56.2703 43.8469 56.0297 45.6484C55.5922 48.8859 52.0187 50.1797 49.1125 49.8953C44.7844 49.4813 43.6469 53.0438 42.625 56.1641C41.7922 58.7063 41.0062 61.1063 38.8406 61.8594C38.1328 62.1063 37.1453 62.1828 36.1 62.2641C34 62.4266 31.6203 62.6125 30.7141 64.4094C30.2859 65.2594 29.8969 66.1328 29.5078 67.0047C28.8312 68.5203 28.1312 70.0859 27.2344 71.4688C26.1328 73.1672 24.4828 73.7219 22.7359 74.3078C20.3187 75.1188 17.5812 76.0406 16.8141 80.2969ZM75.8375 28.0984C75.6297 28.7859 73.5703 28.9141 70.9547 28.4938C70.9531 27.5613 70.8217 26.6336 70.5641 25.7375C70.5186 25.5763 70.4863 25.4117 70.4672 25.2453C73.6922 26.0375 76.0797 27.2969 75.8375 28.0984ZM66.9703 39.5016C66.7219 40.3313 63.7859 40.3656 60.4187 39.5797C59.4858 39.3633 58.5678 39.0872 57.6703 38.7531C57.9937 37.5328 59.0125 36.8828 60.5453 36.4328C60.8094 36.4859 61.0516 36.5141 61.3234 36.5766C64.6906 37.3609 67.2203 38.6719 66.9703 39.5016ZM56.8375 49.6359C56.7031 50.0859 55.7766 50.2969 54.4281 50.275C55.1315 49.8795 55.7569 49.359 56.2734 48.7391C56.6937 49.0625 56.9172 49.375 56.8375 49.6359ZM47.9703 58.5031C47.7687 59.1766 45.7844 59.3172 43.2469 58.9266C43.5531 58.1703 43.8156 57.3906 44.0625 56.6344L44.2391 56.1125C46.5906 56.8781 48.1687 57.8453 47.9703 58.5031ZM37.8344 66.1063C37.5906 66.9172 34.7922 66.9594 31.5312 66.2313C31.7078 65.8516 31.875 65.4625 32.0625 65.0891C32.4344 64.3531 33.475 64.0719 34.6844 63.9172C36.7062 64.6422 38.0187 65.5 37.8344 66.1063ZM28.9703 72.4375C28.8922 72.6969 28.5266 72.8688 27.9937 72.9719C28.1703 72.7609 28.3422 72.5391 28.5016 72.2906C28.5937 72.1484 28.6734 71.9984 28.7625 71.8563C28.9391 72.0641 29.0234 72.2625 28.9703 72.4375ZM67.6266 67.6328C44.7 90.5609 29.0484 92.1953 23.0594 91.7359C22.7365 91.4981 22.4316 91.237 22.1469 90.9547C21.0703 89.8797 20.6 88.8609 20.6656 87.7531C20.8969 83.8953 27.3391 78.8391 35.4953 72.4344C41.6344 67.6141 48.5937 62.1516 55.3703 55.3766C62.1453 48.6 67.6078 41.6406 72.4281 35.4984C78.9328 27.2094 84.0719 20.6641 87.9469 20.6641C88.9625 20.6641 89.9422 21.15 90.9437 22.15C92.4234 23.6313 93.3125 25.6188 93.6594 27.9875C92.9187 36.4125 86.2719 48.9859 67.6266 67.6328Z" fill="#878787"/>
</svg>
