<?xml version="1.0" encoding="utf-8"?>
<svg viewBox="39.798 648.189 2028.6871 544.9999" width="2028.6871" height="544.9999" xmlns="http://www.w3.org/2000/svg">
    <path d="M 39.798 648.189 L 2068.485 648.189 L 2068.485 1116.189 L 2066.485 1117.189 L 1970.485 1118.189 L 1882.485 1121.189 L 1833.485 1123.189 L 1747.485 1129.189 L 1678.485 1135.189 L 1616.485 1141.189 L 1571.485 1146.189 L 1488.485 1156.189 L 1405.485 1168.189 L 1339.485 1178.189 L 1256.485 1188.189 L 1210.485 1191.189 L 1168.485 1193.189 L 1107.485 1193.189 L 1032.485 1190.189 L 986.485 1186.189 L 940.485 1181.189 L 875.485 1171.189 L 832.485 1163.189 L 800.485 1155.189 L 779.485 1149.189 L 739.485 1139.189 L 722.485 1135.189 L 695.485 1126.189 L 654.485 1112.189 L 631.485 1104.189 L 606.485 1094.189 L 578.485 1083.189 L 553.485 1072.189 L 516.485 1055.189 L 500.485 1047.189 L 465.485 1029.189 L 407.485 998.189 L 390.485 987.189 L 369.485 974.189 L 351.485 961.189 L 334.485 950.189 L 316.485 938.189 L 301.485 926.189 L 287.485 916.189 L 275.485 907.189 L 263.485 897.189 L 251.485 888.189 L 237.485 876.189 L 222.485 862.189 L 210.485 851.189 L 199.485 842.189 L 172.485 815.189 L 165.485 807.189 L 150.485 793.189 L 143.485 785.189 L 130.485 771.189 L 121.485 760.189 L 113.485 752.189 L 104.485 741.189 L 90.485 723.189 L 77.485 706.189 L 66.485 691.189 L 49.485 665.189 L 41.485 651.189 L 39.798 648.189 Z"
          fill="#910F0B"/>
</svg>