<svg width="100" height="100" viewBox="0 0 100 100" fill="none" xmlns="http://www.w3.org/2000/svg">
<path d="M29.166 43.7506V25.0007C29.166 23.8956 29.605 22.8358 30.3864 22.0544C31.1678 21.273 32.2276 20.834 33.3327 20.834H39.5827C40.6878 20.834 41.7476 21.273 42.529 22.0544C43.3104 22.8358 43.7493 23.8956 43.7493 25.0007V45.834V12.5007C43.7493 11.3956 44.1883 10.3358 44.9697 9.55437C45.7511 8.77297 46.8109 8.33398 47.916 8.33398H54.166C55.2711 8.33398 56.3309 8.77297 57.1123 9.55437C57.8937 10.3358 58.3327 11.3956 58.3327 12.5007V45.834V29.1673C58.3327 28.0622 58.7717 27.0024 59.5531 26.221C60.3345 25.4396 61.3943 25.0007 62.4993 25.0007H68.7493C69.8544 25.0007 70.9142 25.4396 71.6956 26.221C72.477 27.0024 72.916 28.0622 72.916 29.1673V43.7506" stroke="#878787" stroke-width="5" stroke-linecap="round" stroke-linejoin="round"/>
<path d="M14.583 37.5C14.583 37.5 29.1663 47.9167 49.9997 47.9167C70.833 47.9167 85.4163 37.5 85.4163 37.5L75.3788 91.6667H24.6205L14.583 37.5Z" stroke="#878787" stroke-width="5" stroke-linecap="round" stroke-linejoin="round"/>
<path d="M50 75C56.9036 75 62.5 72.2018 62.5 68.75C62.5 65.2982 56.9036 62.5 50 62.5C43.0964 62.5 37.5 65.2982 37.5 68.75C37.5 72.2018 43.0964 75 50 75Z" stroke="#878787" stroke-width="5"/>
</svg>
